<svg width="53" height="53" viewBox="0 0 53 53" fill="none" xmlns="http://www.w3.org/2000/svg">
<path d="M16 3.20021C-8.26662 14.1335 -2.39995 50.1335 23.8667 52.4002C36.9334 53.4669 47.6001 46.0002 51.3334 33.0669C52.2667 30.1335 52.6667 26.0002 52.1334 24.1335C51.3334 20.6669 51.2001 20.6669 37.8667 20.6669H24.5334L24.9334 26.9335L25.3334 33.3335L31.3334 34.0002L37.3334 34.6669L33.0667 37.0669C26.8 40.4002 22.4001 39.8669 17.8667 35.4669C12.5334 30.0002 12.5334 23.3335 17.8667 17.8669C22.2667 13.6002 26.8001 12.9335 32.5334 15.8669C36.1334 17.7335 36.4001 17.7335 40.8001 13.2002C45.2001 8.53354 45.3334 8.40021 42.6667 6.40021C34.8001 0.400208 24.8 -0.799792 16 3.20021ZM37.4667 7.60021C39.2001 9.33354 39.2001 9.73354 37.4667 11.2002C35.8667 12.5335 34.4001 12.5335 30.6667 11.3335C25.0667 9.46687 19.2 11.0669 14.4 15.6002C11.7334 18.1335 11.0667 18.2669 9.33338 16.5335C7.06671 14.1335 8.66671 11.6002 15.3334 7.46688C19.0667 5.06688 21.4667 4.66687 27.7334 5.06687C32.2667 5.33354 36.2667 6.40021 37.4667 7.60021ZM7.86672 20.1335C11.8667 21.6002 10 34.0002 5.86671 34.0002C4.26671 34.0002 3.33338 27.8669 4.13338 23.4669C5.06671 18.9335 4.93338 19.0669 7.86672 20.1335ZM47.7334 29.6002C47.4667 37.2002 44 42.4002 40.5334 40.5335C38.1334 39.3335 38.1334 38.9335 40 35.3335C41.0667 33.2002 42 31.2002 42 30.6669C42 30.2669 39.0667 30.0002 35.4667 30.0002C28.6667 30.0002 26.5334 28.6669 27.8667 25.2002C28.4 23.6002 30.6667 23.3335 38.2667 23.6002L48 24.0002L47.7334 29.6002ZM15.6 38.6669C20.6667 42.9335 25.2001 44.0002 30.5334 42.4002C33.8667 41.3335 35.4667 41.4669 37.3334 42.8002C38.6667 43.8669 39.6001 44.8002 39.2001 45.2002C34.6667 49.2002 22.8 49.8669 15.8667 46.5335C10 43.7335 6.80005 39.4669 8.93338 37.0669C10.8 34.8002 10.9334 34.8002 15.6 38.6669Z" fill="black"/>
</svg>
