<svg width="66" height="48" viewBox="0 0 66 48" fill="none" xmlns="http://www.w3.org/2000/svg">
<path d="M7.33338 2.40004C2.80005 4.66671 0.800049 11.3334 0.800049 24C0.800049 46.2667 3.06672 47.7334 36.2667 47.0667C57.8667 46.6667 58.0001 46.6667 61.6001 43.0667C65.2001 39.4667 65.2001 38.9334 65.3334 24.4C65.3334 8.00004 64.1334 4.00004 58.5334 2.00004C53.3334 4.09594e-05 11.3334 0.400042 7.33338 2.40004ZM58.0001 8.13338C59.4667 9.60004 60.0001 13.4667 60.0001 24.1334C60.0001 42.6667 61.0667 42 33.0667 42C5.06672 42 5.60005 42.4 6.26672 22.6667C6.40005 15.0667 7.20005 8.40004 7.73338 7.73337C11.2001 4.26671 54.4001 4.66671 58.0001 8.13338Z" fill="black"/>
<path d="M24.6667 24.0007C24.6667 31.334 25.2001 35.334 26.1334 35.334C29.0667 35.334 44.6667 25.734 44.6667 24.0007C44.6667 22.0007 29.7334 12.6673 26.5334 12.6673C25.0667 12.6673 24.6667 15.0673 24.6667 24.0007ZM34.5334 25.6007C30.9334 28.2673 30.0001 27.734 30.0001 23.334V19.334L33.4667 21.6007C36.8001 23.734 36.8001 23.8673 34.5334 25.6007Z" fill="black"/>
</svg>
