<svg width="35" height="60" viewBox="0 0 35 60" fill="none" xmlns="http://www.w3.org/2000/svg">
<path d="M15.3333 2.60046C10.2667 6.06713 8.8 8.46712 7.86667 15.2671C7.06667 20.7338 6.53333 21.5338 3.46667 21.9338C0.133333 22.3338 0 22.7338 0 29.6671C0 36.6005 0.133333 37.0005 3.6 37.4005C7.2 37.8005 7.2 38.0671 7.6 48.0671L8 58.3338L15.7333 58.7338L23.3333 59.1338V48.3338V37.6671H27.3333C30.6667 37.6671 31.3333 37.0005 32.5333 32.6005C35.2 23.2671 34.6667 21.6671 28.6667 21.6671C24.2667 21.6671 23.3333 21.2671 23.3333 19.1338C23.3333 17.0005 24.4 16.4671 28.4 16.0671L33.3333 15.6671L33.7333 7.93379L34.1333 0.333794H26.4C21.2 0.333794 17.4667 1.13379 15.3333 2.60046ZM29.7333 7.93379C30.1333 10.4671 29.4667 10.8671 25.0667 11.2671L20 11.6671V19.0005C20 26.3338 20 26.3338 24.4 26.7338C30.4 27.2671 29.8667 31.5338 23.7333 32.0671L19.4667 32.4671L19.0667 43.4005C18.6667 53.2671 18.4 54.3338 16 54.3338C13.6 54.3338 13.2 53.2671 12.6667 43.6671C12 33.2671 11.8667 33.0005 8.4 32.6005C5.73333 32.3338 4.66667 31.4005 4.66667 29.6671C4.66667 27.9338 5.73333 27.0005 8.4 26.7338C11.7333 26.3338 12 25.8005 12.6667 18.8671C13.0667 14.7338 14.2667 10.3338 15.3333 9.00046C19.7333 3.66713 29.0667 3.00046 29.7333 7.93379Z" fill="black"/>
</svg>
