<svg width="45" height="43" viewBox="0 0 45 43" fill="none" xmlns="http://www.w3.org/2000/svg">
<path d="M3.2667 3.06707C0.333368 6.26707 0.466701 7.73373 3.6667 10.6671C9.13337 15.6004 16.6 7.46707 11.4 2.26707C9.13337 0.000397682 5.80003 0.267065 3.2667 3.06707ZM9.00003 6.66707C9.00003 7.73373 8.0667 8.66706 7.00003 8.66706C5.93337 8.66706 5.00003 7.73373 5.00003 6.66707C5.00003 5.6004 5.93337 4.66707 7.00003 4.66707C8.0667 4.66707 9.00003 5.6004 9.00003 6.66707Z" fill="black"/>
<path d="M24.0667 15.3337C18.8667 18.4003 16.6 25.067 17.2667 35.3337L17.6667 42.667H23H28.3334L29 34.0003C29.5334 27.467 30.2 25.3337 31.6667 25.3337C33.1334 25.3337 33.8 27.467 34.3334 34.0003L35 42.667H39.6667H44.3334L44.7334 32.667C45.1334 21.6003 43.9334 18.267 38.3334 14.9337C33.4 12.0003 29.2667 12.1337 24.0667 15.3337ZM36.3334 17.467C39.6667 18.8003 42.3334 25.3337 42.3334 32.667C42.3334 38.4003 41.9334 39.3337 39.6667 39.3337C37.2667 39.3337 37 38.4003 37 31.3337C37 24.0003 36.7334 23.067 33.6667 21.7337C28.7334 19.467 26.6 22.1337 26.0667 31.067C25.8 37.067 25.1334 38.8003 23.4 39.067C21.2667 39.467 21 38.4003 21 31.3337C21 24.5337 21.5334 22.667 24.3334 20.0003C27.5334 16.8003 31.9334 15.867 36.3334 17.467Z" fill="black"/>
<path d="M1.2667 28.9337L1.6667 42.667H7.00003H12.3334L12.7334 28.9337L13.1334 15.3337H7.00003H0.866699L1.2667 28.9337ZM9.00003 28.667C9.00003 37.2003 8.60003 39.3337 7.00003 39.3337C5.40003 39.3337 5.00003 37.2003 5.00003 28.667C5.00003 20.1337 5.40003 18.0003 7.00003 18.0003C8.60003 18.0003 9.00003 20.1337 9.00003 28.667Z" fill="black"/>
</svg>
