<svg width="65" height="53" viewBox="0 0 65 53" fill="none" xmlns="http://www.w3.org/2000/svg">
<path d="M35.2667 3.20076C33.2667 5.06742 31.2667 8.40076 30.8667 10.6674C30.3334 12.8008 29.2667 14.6674 28.4667 14.6674C25.4 14.6674 12.8667 7.73409 11.5334 5.20076C7.93338 -1.59924 3.66671 4.66742 3.66671 16.6674C3.66671 25.8674 5.40005 30.1341 11.2667 36.2674L16.0667 41.2008L11.5334 41.8674C9.00005 42.2674 5.53338 42.8008 3.66671 42.9341C-1.39995 43.4674 -0.333287 46.9341 5.66671 50.0008C13.5334 53.8674 31.5334 53.7341 39.1334 49.7341C50.4667 43.7341 59.6667 29.0674 59.6667 17.0674C59.6667 15.0674 60.8667 11.4674 62.3334 9.06742C63.8 6.66743 65 3.60076 65 2.13409C65 0.13409 64.3334 -0.132576 61.4 0.667423C57.1334 1.73409 55.1334 1.73409 45.6667 0.534092C39.8 -0.132576 38.4667 0.13409 35.2667 3.20076ZM50.0667 6.26743L55.1334 8.40076L54.6 15.8674C53 36.0008 39.5334 48.8008 21 47.7341L13.6667 47.3341L18.7334 44.8008C21.4 43.4674 23.6667 41.6008 23.6667 40.6674C23.6667 39.7341 21.2667 37.4674 18.3334 35.4674C11 30.6674 6.20005 20.0008 8.33338 13.3341C9.13338 10.8008 9.26671 10.8008 14.0667 14.0008C16.7334 15.7341 21.8 17.8674 25.4 18.8008C32.8667 20.6674 35.6667 19.0674 35.6667 13.3341C35.6667 9.06742 38.6 6.00076 44.6 4.13409C44.8667 4.00076 47.2667 4.93409 50.0667 6.26743Z" fill="black"/>
</svg>
